<?xml version="1.0" encoding="utf-8"?>
<!-- Generator: Adobe Illustrator 21.0.0, SVG Export Plug-In . SVG Version: 6.00 Build 0)  -->
<svg version="1.1" id="Layer_1" xmlns="http://www.w3.org/2000/svg" xmlns:xlink="http://www.w3.org/1999/xlink" x="0px" y="0px"
	 viewBox="0 0 250 250" style="enable-background:new 0 0 250 250;" xml:space="preserve">
<style type="text/css">
	.st0{fill:#D4B830;}
	.st1{opacity:0.986;fill:#EBEBEB;fill-opacity:0;enable-background:new    ;}
	.st2{opacity:0.986;fill:#EBEBEB;fill-opacity:0.9216;enable-background:new    ;}
	.st3{fill:#FDD83C;}
</style>
<g id="g5193" transform="translate(4.988 -113.385)">
	<path id="path5113" class="st0" d="M54.6,315.1L39.7,150.9l160.7,0.1l-14.8,164l-65.7,18.5L54.6,315.1z M173.5,306.1l12.5-140.6
		h-65.8l0.5,155.1L173.5,306.1z M114,186.1H98l-0.2,84.2l-31-8.5l0.1,19.2l47.1,12.7V186.1L114,186.1z"/>
	<path id="path5159" class="st1" d="M108.7,292.2c-2.1-0.6-12.3-3.4-22.7-6.2l-18.9-5.1v-9.5c0-9.3,0-9.5,0.9-9.1
		c0.5,0.2,7.4,2.1,15.3,4.3l14.3,3.9l0.1-42l0.1-42h15.7v53.4c0,42.4-0.1,53.4-0.6,53.4C112.8,293.3,110.8,292.7,108.7,292.2
		L108.7,292.2z"/>
	<path id="path5157" class="st2" d="M66.9,281l-0.1-19.2c0,0,19.8,5.6,31,8.5l0.2-84.1h16v107.6L66.9,281L66.9,281z"/>
	<path id="path5117" class="st3" d="M120.1,165.4h65.8L173.5,306l-53.3,14.5V165.4z M170.1,282.5l4.3-52.6l-32,3.6v-28.1l34.1-0.1
		l1.4-19.2l-51.4,0.3l0.7,69.8l31.1-5.3l-0.4,15.5l-31.3,8.3l0.3,19L170.1,282.5L170.1,282.5z"/>
</g>
</svg>
